<svg width="90" height="91" viewBox="0 0 90 91" fill="none" xmlns="http://www.w3.org/2000/svg">
<g clip-path="url(#clip0_345_1400)">
<rect x="5" y="5.5" width="80" height="80" rx="7" fill="#B20237"/>
<rect x="1" y="1.5" width="88" height="88" rx="10" stroke="#B20237" stroke-width="2"/>
<path d="M32.6872 33.1958C31.0683 36.0349 31.0553 39.0514 30.8513 40.9006C30.4433 40.6951 29.2602 39.2364 27.7915 37.5105C26.3227 35.7846 24.4256 35.6613 22.2838 37.5105C21.8758 35.6613 22.0635 29.1053 24.4256 24.5664C27.9343 17.8245 32.9808 15.2176 40.3368 13.4715C50.1301 11.1469 58.6523 12.798 65.1214 20.5599C70.8937 27.4859 67.9831 42.1918 69.207 42.5C71.1926 43 72.6351 47.1099 71.7171 50.5C70.9236 53.4306 68.1248 56.3102 66.6968 56.9266C66.3909 57.7484 65.9318 59.9761 65.1214 62.1658C62.9957 67.9097 59.8538 70.8242 54.412 73.5689C49.0314 76.2828 40.9487 75.1099 39.1128 75.4181C37.1797 75.7426 35.1351 78.5 35.1351 78.5C33.5031 78.3973 29.2012 78.1781 25.6496 76.959C22.4625 75.8651 19.0199 73.8771 18 72.9525C19.3259 69.0488 24.9839 64.3935 26.2615 56.3102C26.8408 52.645 25.9556 45.8316 23.2017 41.8251C22.5746 40.9128 24.2843 40.2875 25.3436 40.5924C29.1324 41.6827 30.2085 47.1126 30.9005 51.3381C31.0201 52.0683 31.8605 52.4228 32.4691 52.002C34.4602 50.6252 38.3233 48.0197 41.2547 46.448C43.9731 44.9905 47.9244 43.3313 50.0913 42.451C50.9687 42.0946 51.9634 42.5015 52.3529 43.3647C52.7954 44.3453 52.2764 45.4948 51.2593 45.8455C49.8927 46.3166 48.076 46.9951 46.7624 47.6808C45.0056 48.5978 42.7112 50.2779 41.7316 51.0155C41.4519 51.2262 41.3666 51.6045 41.5223 51.9181C41.7096 52.2954 42.1748 52.4398 42.5444 52.2377C43.8051 51.5486 46.5667 50.0717 48.5983 49.2218C50.4512 48.4465 53.0795 47.6142 54.6377 47.1421C55.3928 46.9134 56.1965 47.269 56.5473 47.9757C57.0184 48.9247 56.4796 50.0689 55.4542 50.3356C53.8841 50.7439 51.713 51.357 50.1282 51.9955C48.0219 52.8441 45.2293 54.4314 43.8831 55.2216C43.4413 55.481 43.3017 56.0481 43.5638 56.4882C43.8145 56.909 44.346 57.0662 44.786 56.8509C46.0921 56.212 48.7762 54.9244 50.7402 54.1528C52.3363 53.5258 54.5603 52.806 55.9293 52.3767C56.6353 52.1553 57.39 52.5036 57.6887 53.1804C58.0553 54.0112 57.5883 54.9758 56.7165 55.2297C55.3293 55.6338 53.3649 56.2596 51.9641 56.9266C50.2046 57.7644 47.9415 59.3306 46.8292 60.1291C46.4403 60.4083 46.3362 60.9367 46.5812 61.348C46.849 61.7976 47.4337 61.9416 47.8848 61.6766C48.834 61.119 50.4274 60.2182 51.6581 59.7003C52.7774 59.2293 54.3366 58.7636 55.3923 58.4695C56.0523 58.2857 56.7347 58.645 56.9737 59.287C57.2439 60.0126 56.851 60.8187 56.1192 61.0716C53.8831 61.8442 49.4015 63.5422 46.7624 65.5559C44.0684 67.6116 40.5566 71.9525 40.5566 71.9525C40.5566 71.9525 43.9916 72.0957 45.5385 71.9525C51.8181 71.3715 55.7278 69.9587 59.6684 65C62.6225 61.2828 63.5915 54.1528 64.2035 54.1528C64.8154 54.1528 65.4274 55.0774 67.5693 51.9955C69.8164 48.7622 69.4052 45.8316 67.5693 45.2153C66.2867 44.7847 65.1214 45.8316 65.1214 47.6808C65.1214 48.6208 65.1214 49.8382 63.5915 49.8382C62.0616 49.8382 62.3675 48.6054 62.3675 45.5235C62.3675 42.4415 60.399 39.2734 57.7778 36.8941C53.6334 33.132 49.3568 35.9428 44.0086 35.0449C40.3368 34.4285 36.665 31.0384 36.053 29.1893C36.053 29.1893 33.5799 31.6303 32.6872 33.1958Z" fill="white" stroke="#B20237" stroke-width="1.5"/>
</g>
<defs>
<clipPath id="clip0_345_1400">
<rect width="90" height="90" fill="white" transform="translate(0 0.5)"/>
</clipPath>
</defs>
</svg>
