<svg width="90" height="91" viewBox="0 0 90 91" fill="none" xmlns="http://www.w3.org/2000/svg">
<g clip-path="url(#clip0_1303_745)">
<rect x="5" y="5.5" width="80" height="80" rx="7" fill="#B20237"/>
<rect x="1" y="1.5" width="88" height="88" rx="10" stroke="#B20237" stroke-width="2"/>
<path d="M19 68.5C19 68.8506 19.1216 69.1872 19.3452 69.5C20.178 70.6652 22.4252 71.5 25.0666 71.5C27.708 71.5 29.9551 70.6652 30.788 69.5C31.0115 69.1872 31.1332 68.8506 31.1332 68.5V67.5V64.5C31.1332 65.2684 30.549 65.9692 29.5884 66.5C28.4776 67.1138 26.8633 67.5 25.0666 67.5C23.2699 67.5 21.6556 67.1138 20.5447 66.5C19.5841 65.9692 19 65.2684 19 64.5V68.5Z" fill="white"/>
<path d="M50.344 49.5168V43.5C54.3884 43.5 57.4216 43.0001 57.4216 46.5C57.4216 49.5154 55.1702 49.5618 50.344 49.5168Z" fill="white"/>
<path d="M50.8495 30.5H51.327H52.3662H54.3326C56.1564 30.5 57.7546 29.2927 58.2344 27.5525L60.0802 20.8588C60.2055 20.4046 59.6633 20.0162 59.2492 20.2483C58.2017 20.8355 56.659 21.547 55.3995 21.5C53.4564 21.4275 52.794 19.5 50.8495 19.5C48.9051 19.5 48.2427 21.4275 46.2996 21.5C45.0401 21.547 43.4974 20.8355 42.4498 20.2483C42.0357 20.0162 41.4936 20.4046 41.6188 20.8588L43.4646 27.5525C43.9445 29.2927 45.5427 30.5 47.3665 30.5H49.3329H50.8495Z" fill="white"/>
<path fill-rule="evenodd" clip-rule="evenodd" d="M51.327 30.5H50.8495C50.3124 30.5 49.78 30.5212 49.2533 30.5629C45.9578 30.8238 42.8825 31.8856 40.233 33.5559V52.9013C42.0463 53.4201 43.2663 54.3896 43.2663 55.5V66.5H60.8887C66.6933 66.5 71.3061 61.6773 70.9841 55.9453L70.5659 48.5C70.0187 38.7579 62.14 31.0606 52.4032 30.5293C52.0469 30.5098 51.688 30.5 51.327 30.5ZM50.344 49.5168V43.5C54.3884 43.5 57.4216 43.0001 57.4216 46.5C57.4216 49.5154 55.1702 49.5618 50.344 49.5168Z" fill="white"/>
<path d="M28.0999 35.5C31.4503 35.5 34.1664 36.8431 34.1664 38.5V52.9013C35.0588 52.6461 36.0947 52.5 37.1997 52.5C38.3047 52.5 39.3407 52.6461 40.233 52.9013V33.5559V25.5C40.233 27.1569 37.5169 28.5 34.1664 28.5C30.816 28.5 28.0999 27.1569 28.0999 25.5V35.5Z" fill="white"/>
<path d="M22.0333 38.5V61.5H25.0666C26.1716 61.5 27.2076 61.6461 28.0999 61.9013C29.9132 62.4201 31.1332 63.3896 31.1332 64.5V61.5V55.5C31.1332 54.3896 32.3531 53.4201 34.1664 52.9013V38.5C34.1664 40.1569 31.4503 41.5 28.0999 41.5C24.7494 41.5 22.0333 40.1569 22.0333 38.5Z" fill="white"/>
<path d="M28.0999 41.5C31.4503 41.5 34.1664 40.1569 34.1664 38.5C34.1664 36.8431 31.4503 35.5 28.0999 35.5C24.7494 35.5 22.0333 36.8431 22.0333 38.5C22.0333 40.1569 24.7494 41.5 28.0999 41.5Z" fill="white"/>
<path d="M34.1664 28.5C37.5169 28.5 40.233 27.1569 40.233 25.5C40.233 23.8431 37.5169 22.5 34.1664 22.5C30.816 22.5 28.0999 23.8431 28.0999 25.5C28.0999 27.1569 30.816 28.5 34.1664 28.5Z" fill="white"/>
<path d="M31.1332 64.5V67.5C31.1332 68.6046 33.8493 69.5 37.1997 69.5C40.5502 69.5 43.2663 68.6046 43.2663 67.5V66.5V55.5C43.2663 56.6104 42.0463 57.5799 40.233 58.0987C39.3407 58.3539 38.3047 58.5 37.1997 58.5C36.0947 58.5 35.0588 58.3539 34.1664 58.0987C32.3531 57.5799 31.1332 56.6104 31.1332 55.5V61.5V64.5Z" fill="white"/>
<path d="M34.1664 52.9013C32.3531 53.4201 31.1332 54.3896 31.1332 55.5C31.1332 56.6104 32.3531 57.5799 34.1664 58.0987C35.0588 58.3539 36.0947 58.5 37.1997 58.5C38.3047 58.5 39.3407 58.3539 40.233 58.0987C42.0463 57.5799 43.2663 56.6104 43.2663 55.5C43.2663 54.3896 42.0463 53.4201 40.233 52.9013C39.3407 52.6461 38.3047 52.5 37.1997 52.5C36.0947 52.5 35.0588 52.6461 34.1664 52.9013Z" fill="white"/>
<path d="M25.0666 61.5C21.7161 61.5 19 62.8431 19 64.5C19 65.2684 19.5841 65.9692 20.5447 66.5C21.6556 67.1138 23.2699 67.5 25.0666 67.5C26.8633 67.5 28.4776 67.1138 29.5884 66.5C30.549 65.9692 31.1332 65.2684 31.1332 64.5C31.1332 63.3896 29.9132 62.4201 28.0999 61.9013C27.2076 61.6461 26.1716 61.5 25.0666 61.5Z" fill="white"/>
<path d="M22.0333 61.5H21.2833V62.25H22.0333V61.5ZM70.5659 48.5L71.3147 48.4579L70.5659 48.5ZM70.9841 55.9453L70.2353 55.9874L70.9841 55.9453ZM55.3995 21.5L55.4274 20.7505L55.3995 21.5ZM46.2996 21.5L46.2716 20.7505L46.2996 21.5ZM43.4646 27.5525L44.1876 27.3531L43.4646 27.5525ZM58.2344 27.5525L58.9575 27.7518L58.2344 27.5525ZM60.0802 20.8588L59.3572 20.6594L60.0802 20.8588ZM59.2492 20.2483L59.616 20.9025L59.2492 20.2483ZM41.6188 20.8588L40.8958 21.0582V21.0582L41.6188 20.8588ZM42.4498 20.2483L42.0831 20.9025L42.4498 20.2483ZM43.812 33.9118C43.4872 34.1689 43.4322 34.6405 43.6892 34.9654C43.9463 35.2902 44.4179 35.3452 44.7428 35.0882L43.812 33.9118ZM56.9563 35.0882C57.2811 35.3452 57.7528 35.2902 58.0098 34.9654C58.2668 34.6405 58.2118 34.1689 57.887 33.9118L56.9563 35.0882ZM50.0995 34.5C50.0995 34.9142 50.4353 35.25 50.8495 35.25C51.2637 35.25 51.5995 34.9142 51.5995 34.5H50.0995ZM48.0208 25.2587C47.8876 24.8665 47.4616 24.6566 47.0694 24.7899C46.6772 24.9231 46.4673 25.3491 46.6006 25.7413L48.0208 25.2587ZM48.3218 28L47.6542 28.3419L48.3218 28ZM49.6657 30.1584L50.2029 30.6817L50.636 30.2372L50.2804 29.7286L49.6657 30.1584ZM55.4511 25.6723C55.5462 25.2691 55.2965 24.8652 54.8934 24.7701C54.4902 24.6749 54.0863 24.9246 53.9912 25.3277L55.4511 25.6723ZM53.8828 28L54.552 28.3386L53.8828 28ZM52.3661 30.1584L51.7942 29.6732L51.616 29.8832L51.6161 30.1585L52.3661 30.1584ZM19.3452 69.5L18.735 69.9361H18.735L19.3452 69.5ZM30.788 69.5L31.3981 69.9361L30.788 69.5ZM20.5447 66.5L20.9074 65.8435H20.9074L20.5447 66.5ZM29.5884 66.5L29.9511 67.1565L29.5884 66.5ZM40.233 52.9013L40.0267 53.6224L40.233 52.9013ZM40.233 58.0987L40.4393 58.8197L40.233 58.0987ZM34.1664 58.0987L33.9602 58.8197H33.9602L34.1664 58.0987ZM28.0999 61.9013L28.3061 61.1803H28.3061L28.0999 61.9013ZM69.2621 31.6906C69.6435 31.8522 70.0837 31.6741 70.2453 31.2927C70.407 30.9114 70.2289 30.4712 69.8475 30.3095L69.2621 31.6906ZM67.4486 35.4636C67.7047 35.7892 68.1762 35.8456 68.5018 35.5895C68.8274 35.3335 68.8837 34.862 68.6277 34.5364L67.4486 35.4636ZM68.7871 55.0393C68.8088 54.6256 68.4911 54.2727 68.0774 54.251C67.6638 54.2293 67.3109 54.5471 67.2892 54.9607L68.7871 55.0393ZM66.016 60.5L65.5062 59.9499L66.016 60.5ZM59.4086 61.7508C58.9948 61.7703 58.6752 62.1215 58.6947 62.5353C58.7141 62.949 59.0653 63.2686 59.4791 63.2492L59.4086 61.7508ZM50.344 43.5L50.344 42.75L49.594 42.75V43.5H50.344ZM49.594 54.5C49.594 54.9143 49.9298 55.25 50.344 55.25C50.7582 55.25 51.094 54.9143 51.094 54.5H49.594ZM57.4216 46.5H56.6716H57.4216ZM48.3275 48.75C47.9133 48.7468 47.575 49.08 47.5718 49.4942C47.5686 49.9084 47.9018 50.2468 48.316 50.25L48.3275 48.75ZM52.3662 53.25C52.7804 53.25 53.1162 52.9142 53.1162 52.5C53.1162 52.0858 52.7804 51.75 52.3662 51.75V53.25ZM48.3218 51.75C47.9076 51.75 47.5718 52.0858 47.5718 52.5C47.5718 52.9142 47.9076 53.25 48.3218 53.25V51.75ZM22.7833 61.5V38.5H21.2833V61.5H22.7833ZM33.4164 38.5C33.4164 38.8869 33.0783 39.444 32.0571 39.949C31.0832 40.4307 29.6851 40.75 28.0999 40.75V42.25C29.8652 42.25 31.5003 41.8978 32.722 41.2936C33.8965 40.7128 34.9164 39.7699 34.9164 38.5H33.4164ZM28.0999 40.75C26.5147 40.75 25.1166 40.4307 24.1426 39.949C23.1214 39.444 22.7833 38.8869 22.7833 38.5H21.2833C21.2833 39.7699 22.3032 40.7128 23.4777 41.2936C24.6994 41.8978 26.3346 42.25 28.0999 42.25V40.75ZM22.7833 38.5C22.7833 38.1131 23.1214 37.556 24.1426 37.051C25.1166 36.5693 26.5147 36.25 28.0999 36.25V34.75C26.3346 34.75 24.6994 35.1022 23.4777 35.7064C22.3032 36.2872 21.2833 37.2301 21.2833 38.5H22.7833ZM28.0999 36.25C29.6851 36.25 31.0832 36.5693 32.0571 37.051C33.0783 37.556 33.4164 38.1131 33.4164 38.5H34.9164C34.9164 37.2301 33.8965 36.2872 32.722 35.7064C31.5003 35.1022 29.8652 34.75 28.0999 34.75V36.25ZM39.483 25.5C39.483 25.8869 39.1449 26.444 38.1237 26.949C37.1497 27.4307 35.7516 27.75 34.1664 27.75V29.25C35.9317 29.25 37.5669 28.8978 38.7886 28.2936C39.9631 27.7128 40.983 26.7699 40.983 25.5H39.483ZM34.1664 27.75C32.5812 27.75 31.1832 27.4307 30.2092 26.949C29.188 26.444 28.8499 25.8869 28.8499 25.5H27.3499C27.3499 26.7699 28.3698 27.7128 29.5443 28.2936C30.766 28.8978 32.4012 29.25 34.1664 29.25V27.75ZM28.8499 25.5C28.8499 25.1131 29.188 24.556 30.2092 24.051C31.1832 23.5693 32.5812 23.25 34.1664 23.25V21.75C32.4012 21.75 30.766 22.1022 29.5443 22.7064C28.3698 23.2872 27.3499 24.2301 27.3499 25.5H28.8499ZM34.1664 23.25C35.7516 23.25 37.1497 23.5693 38.1237 24.051C39.1449 24.556 39.483 25.1131 39.483 25.5H40.983C40.983 24.2301 39.9631 23.2872 38.7886 22.7064C37.5669 22.1022 35.9317 21.75 34.1664 21.75V23.25ZM50.8495 31.25H51.327V29.75H50.8495V31.25ZM69.8171 48.5421L70.2353 55.9874L71.7329 55.9032L71.3147 48.4579L69.8171 48.5421ZM60.8887 67.25C67.1155 67.25 72.0795 62.0738 71.7329 55.9032L70.2353 55.9874C70.5326 61.2809 66.271 65.75 60.8887 65.75V67.25ZM59.3572 20.6594L57.5114 27.3531L58.9575 27.7518L60.8033 21.0582L59.3572 20.6594ZM54.3326 29.75H47.3665V31.25H54.3326V29.75ZM44.1876 27.3531L42.3418 20.6594L40.8958 21.0582L42.7416 27.7518L44.1876 27.3531ZM50.8495 20.25C51.5436 20.25 52.012 20.5732 52.6737 21.0718C53.3053 21.5477 54.1335 22.2033 55.3715 22.2495L55.4274 20.7505C54.7223 20.7242 54.2478 20.3798 53.5763 19.8738C52.9349 19.3905 52.0999 18.75 50.8495 18.75V20.25ZM55.3715 22.2495C56.1395 22.2781 56.9446 22.0773 57.6604 21.8167C58.3852 21.5529 59.071 21.208 59.616 20.9025L58.8825 19.5941C58.3799 19.8758 57.7706 20.1803 57.1473 20.4072C56.5149 20.6375 55.9189 20.7689 55.4274 20.7505L55.3715 22.2495ZM42.0831 20.9025C42.628 21.208 43.3139 21.5529 44.0386 21.8167C44.7544 22.0773 45.5595 22.2781 46.3276 22.2495L46.2716 20.7505C45.7801 20.7689 45.1841 20.6375 44.5518 20.4072C43.9284 20.1803 43.3192 19.8758 42.8166 19.5941L42.0831 20.9025ZM46.3276 22.2495C47.5655 22.2033 48.3938 21.5477 49.0254 21.0718C49.687 20.5732 50.1555 20.25 50.8495 20.25V18.75C49.5991 18.75 48.7641 19.3905 48.1227 19.8738C47.4512 20.3798 46.9767 20.7242 46.2716 20.7505L46.3276 22.2495ZM47.3665 29.75C45.8752 29.75 44.5765 28.7633 44.1876 27.3531L42.7416 27.7518C43.3125 29.8221 45.2102 31.25 47.3665 31.25V29.75ZM57.5114 27.3531C57.1225 28.7633 55.8239 29.75 54.3326 29.75V31.25C56.4889 31.25 58.3866 29.8221 58.9575 27.7518L57.5114 27.3531ZM60.8033 21.0582C60.9654 20.4701 60.6781 19.9588 60.3082 19.6897C59.9415 19.4229 59.3873 19.3111 58.8825 19.5941L59.616 20.9025C59.5252 20.9534 59.4492 20.9197 59.4258 20.9027C59.4101 20.8913 59.3856 20.8678 59.3677 20.824C59.3473 20.7745 59.3422 20.7138 59.3572 20.6594L60.8033 21.0582ZM42.3418 20.6594C42.3568 20.7138 42.3517 20.7745 42.3314 20.824C42.3134 20.8678 42.289 20.8913 42.2733 20.9027C42.2499 20.9197 42.1738 20.9534 42.0831 20.9025L42.8166 19.5941C42.3118 19.3111 41.7576 19.4229 41.3908 19.6897C41.0209 19.9588 40.7336 20.4701 40.8958 21.0582L42.3418 20.6594ZM50.0995 30.5V34.5H51.5995V30.5H50.0995ZM47.3107 25.5C46.6006 25.7413 46.6006 25.7413 46.6006 25.7414C46.6006 25.7414 46.6006 25.7414 46.6006 25.7415C46.6007 25.7416 46.6007 25.7417 46.6007 25.7418C46.6008 25.7421 46.601 25.7425 46.6011 25.7429C46.6014 25.7439 46.6019 25.7452 46.6025 25.7468C46.6036 25.7502 46.6052 25.755 46.6074 25.7612C46.6116 25.7736 46.6178 25.7916 46.6258 25.8147C46.6419 25.8609 46.6651 25.9274 46.6944 26.0099C46.753 26.1748 46.8362 26.4045 46.9349 26.6644C47.1294 27.1769 47.3942 27.8341 47.6542 28.3419L48.9893 27.6581C48.769 27.2278 48.5282 26.635 48.3373 26.1321C48.2432 25.8842 48.1637 25.6648 48.1078 25.5075C48.0799 25.4289 48.0579 25.3661 48.043 25.3232C48.0356 25.3017 48.0299 25.2853 48.0262 25.2743C48.0243 25.2689 48.0229 25.2648 48.022 25.2622C48.0215 25.2609 48.0212 25.2599 48.021 25.2593C48.0209 25.259 48.0209 25.2589 48.0208 25.2587C48.0208 25.2587 48.0208 25.2587 48.0208 25.2587C48.0208 25.2587 48.0208 25.2587 48.0208 25.2587C48.0208 25.2587 48.0208 25.2587 47.3107 25.5ZM47.6542 28.3419C47.899 28.8198 48.2528 29.3864 48.5348 29.8196C48.6779 30.0392 48.8063 30.2305 48.8991 30.367C48.9455 30.4353 48.9831 30.49 49.0093 30.5279C49.0224 30.5469 49.0327 30.5617 49.0397 30.5718C49.0432 30.5769 49.046 30.5809 49.0479 30.5836C49.0488 30.585 49.0496 30.586 49.0501 30.5868C49.0504 30.5872 49.0506 30.5875 49.0508 30.5877C49.0508 30.5878 49.0509 30.5879 49.0509 30.588C49.051 30.588 49.051 30.588 49.051 30.5881C49.051 30.5881 49.0511 30.5881 49.6657 30.1584C50.2804 29.7286 50.2804 29.7286 50.2804 29.7286C50.2804 29.7286 50.2804 29.7286 50.2804 29.7286C50.2804 29.7286 50.2804 29.7286 50.2803 29.7286C50.2803 29.7285 50.2802 29.7283 50.28 29.7281C50.2797 29.7276 50.2791 29.7268 50.2784 29.7258C50.2769 29.7236 50.2746 29.7203 50.2715 29.7158C50.2652 29.7069 50.2559 29.6934 50.2437 29.6757C50.2194 29.6405 50.1838 29.5887 50.1396 29.5236C50.051 29.3934 49.9283 29.2106 49.7919 29.0011C49.515 28.5759 49.1968 28.0633 48.9893 27.6581L47.6542 28.3419ZM54.7211 25.5C53.9912 25.3277 53.9912 25.3277 53.9912 25.3276C53.9912 25.3276 53.9912 25.3276 53.9912 25.3276C53.9912 25.3276 53.9912 25.3276 53.9912 25.3276C53.9912 25.3276 53.9912 25.3278 53.9911 25.328C53.991 25.3285 53.9908 25.3293 53.9905 25.3306C53.9899 25.333 53.989 25.3369 53.9877 25.3422C53.9852 25.3527 53.9812 25.3688 53.976 25.39C53.9656 25.4323 53.95 25.4946 53.9297 25.5726C53.8891 25.7289 53.8302 25.9466 53.7575 26.1916C53.6084 26.6939 53.4142 27.2648 53.2136 27.6614L54.552 28.3386C54.8168 27.8153 55.0418 27.1363 55.1955 26.6185C55.2741 26.3535 55.3376 26.1187 55.3815 25.9499C55.4034 25.8654 55.4206 25.7971 55.4323 25.7494C55.4382 25.7255 55.4428 25.7068 55.4459 25.6938C55.4475 25.6873 55.4487 25.6822 55.4496 25.6786C55.45 25.6768 55.4503 25.6753 55.4506 25.6743C55.4507 25.6738 55.4508 25.6733 55.4509 25.673C55.4509 25.6728 55.451 25.6727 55.451 25.6726C55.451 25.6725 55.451 25.6724 55.451 25.6724C55.451 25.6723 55.4511 25.6723 54.7211 25.5ZM53.2136 27.6614C53.0133 28.0574 52.6683 28.5526 52.352 28.9712C52.1977 29.1753 52.0571 29.3522 51.9552 29.4779C51.9043 29.5406 51.8634 29.5903 51.8354 29.6239C51.8215 29.6407 51.8108 29.6534 51.8038 29.6618C51.8003 29.6659 51.7977 29.669 51.7961 29.6709C51.7953 29.6719 51.7947 29.6726 51.7944 29.6729C51.7942 29.6731 51.7941 29.6732 51.7941 29.6733C51.7941 29.6733 51.7941 29.6733 51.7941 29.6733C51.7941 29.6733 51.7941 29.6732 51.7941 29.6732C51.7941 29.6732 51.7942 29.6732 52.3661 30.1584C52.938 30.6435 52.938 30.6435 52.9381 30.6435C52.9381 30.6434 52.9382 30.6434 52.9382 30.6433C52.9383 30.6432 52.9384 30.6431 52.9385 30.643C52.9387 30.6427 52.939 30.6424 52.9393 30.642C52.94 30.6412 52.941 30.64 52.9422 30.6386C52.9446 30.6358 52.948 30.6318 52.9523 30.6266C52.9609 30.6164 52.9733 30.6016 52.989 30.5827C53.0204 30.5449 53.0653 30.4904 53.1204 30.4225C53.2303 30.2869 53.3818 30.0964 53.5486 29.8757C53.8745 29.4445 54.2879 28.8606 54.552 28.3386L53.2136 27.6614ZM19.75 64.5C19.75 64.1131 20.0881 63.556 21.1093 63.051C22.0833 62.5693 23.4814 62.25 25.0666 62.25V60.75C23.3013 60.75 21.6661 61.1022 20.4444 61.7064C19.27 62.2872 18.25 63.2301 18.25 64.5H19.75ZM19.9554 69.0639C19.8064 68.8555 19.75 68.6683 19.75 68.5H18.25C18.25 69.033 18.4369 69.519 18.735 69.9361L19.9554 69.0639ZM25.0666 70.75C23.8209 70.75 22.6849 70.5526 21.779 70.2303C20.8561 69.902 20.247 69.4718 19.9554 69.0639L18.735 69.9361C19.2763 70.6933 20.207 71.2632 21.2763 71.6436C22.3625 72.03 23.6709 72.25 25.0666 72.25V70.75ZM30.3832 68.5C30.3832 68.6683 30.3268 68.8555 30.1778 69.0639L31.3981 69.9361C31.6963 69.519 31.8832 69.033 31.8832 68.5H30.3832ZM30.1778 69.0639C29.8862 69.4718 29.277 69.902 28.3541 70.2303C27.4482 70.5526 26.3123 70.75 25.0666 70.75V72.25C26.4623 72.25 27.7706 72.03 28.8569 71.6436C29.9261 71.2632 30.8569 70.6933 31.3981 69.9361L30.1778 69.0639ZM18.25 64.5V68.5H19.75V64.5H18.25ZM20.9074 65.8435C20.0339 65.3609 19.75 64.8574 19.75 64.5H18.25C18.25 65.6793 19.1343 66.5776 20.182 67.1565L20.9074 65.8435ZM25.0666 66.75C23.3637 66.75 21.8815 66.3817 20.9074 65.8435L20.182 67.1565C21.4296 67.8458 23.176 68.25 25.0666 68.25V66.75ZM31.8832 68.5V64.5H30.3832V68.5H31.8832ZM30.3832 64.5C30.3832 64.8574 30.0992 65.3609 29.2257 65.8435L29.9511 67.1565C30.9989 66.5776 31.8832 65.6793 31.8832 64.5H30.3832ZM29.2257 65.8435C28.2516 66.3817 26.7694 66.75 25.0666 66.75V68.25C26.9571 68.25 28.7035 67.8458 29.9511 67.1565L29.2257 65.8435ZM42.5163 67.5C42.5163 67.4442 42.551 67.5135 42.3285 67.687C42.1154 67.853 41.7604 68.0352 41.2546 68.2019C40.2512 68.5327 38.8175 68.75 37.1997 68.75V70.25C38.9325 70.25 40.5321 70.0195 41.7243 69.6265C42.3164 69.4313 42.8497 69.1825 43.2506 68.87C43.6421 68.5649 44.0163 68.108 44.0163 67.5H42.5163ZM37.1997 68.75C35.582 68.75 34.1483 68.5327 33.1448 68.2019C32.6391 68.0352 32.284 67.853 32.071 67.687C31.8485 67.5135 31.8832 67.4442 31.8832 67.5H30.3832C30.3832 68.108 30.7573 68.5649 31.1488 68.87C31.5497 69.1825 32.0831 69.4313 32.6752 69.6265C33.8674 70.0195 35.467 70.25 37.1997 70.25V68.75ZM31.8832 55.5C31.8832 55.2412 32.023 54.9131 32.4518 54.5534C32.8795 54.1946 33.5331 53.8626 34.3727 53.6224L33.9602 52.1803C32.9865 52.4588 32.1234 52.8709 31.4878 53.4042C30.8533 53.9365 30.3832 54.6484 30.3832 55.5H31.8832ZM34.3727 53.6224C35.1926 53.3879 36.1588 53.25 37.1997 53.25V51.75C36.0307 51.75 34.9249 51.9043 33.9602 52.1803L34.3727 53.6224ZM31.8832 67.5V61.5H30.3832V67.5H31.8832ZM40.983 52.9013V33.5559H39.483V52.9013H40.983ZM37.1997 53.25C38.2407 53.25 39.2068 53.3879 40.0267 53.6224L40.4393 52.1803C39.4746 51.9043 38.3687 51.75 37.1997 51.75V53.25ZM40.0267 53.6224C40.8664 53.8626 41.5199 54.1946 41.9476 54.5534C42.3765 54.9131 42.5163 55.2412 42.5163 55.5H44.0163C44.0163 54.6484 43.5462 53.9365 42.9117 53.4042C42.276 52.8709 41.413 52.4588 40.4393 52.1803L40.0267 53.6224ZM39.483 25.5V33.5559H40.983V25.5H39.483ZM40.4393 58.8197C41.413 58.5412 42.276 58.1291 42.9117 57.5958C43.5462 57.0635 44.0163 56.3516 44.0163 55.5H42.5163C42.5163 55.7588 42.3765 56.0869 41.9476 56.4466C41.5199 56.8054 40.8664 57.1374 40.0267 57.3776L40.4393 58.8197ZM40.0267 57.3776C39.2068 57.6121 38.2407 57.75 37.1997 57.75V59.25C38.3687 59.25 39.4746 59.0957 40.4393 58.8197L40.0267 57.3776ZM30.3832 55.5C30.3832 56.3516 30.8533 57.0635 31.4878 57.5958C32.1234 58.1291 32.9865 58.5412 33.9602 58.8197L34.3727 57.3776C33.5331 57.1374 32.8795 56.8054 32.4518 56.4466C32.023 56.0869 31.8832 55.7588 31.8832 55.5H30.3832ZM37.1997 57.75C36.1588 57.75 35.1926 57.6121 34.3727 57.3776L33.9602 58.8197C34.9249 59.0957 36.0307 59.25 37.1997 59.25V57.75ZM30.3832 61.5V64.5H31.8832V61.5H30.3832ZM44.0163 66.5V55.5H42.5163V66.5H44.0163ZM42.5163 66.5V67.5H44.0163V66.5H42.5163ZM60.8887 65.75H43.2663V67.25H60.8887V65.75ZM30.3832 64.5V67.5H31.8832V64.5H30.3832ZM31.8832 64.5C31.8832 63.6484 31.413 62.9365 30.7785 62.4042C30.1429 61.8709 29.2798 61.4588 28.3061 61.1803L27.8936 62.6224C28.7332 62.8626 29.3868 63.1946 29.8145 63.5534C30.2433 63.9131 30.3832 64.2412 30.3832 64.5H31.8832ZM25.0666 62.25C26.1075 62.25 27.0737 62.3879 27.8936 62.6224L28.3061 61.1803C27.3414 60.9043 26.2356 60.75 25.0666 60.75V62.25ZM27.3499 25.5V35.5H28.8499V25.5H27.3499ZM22.0333 62.25H25.0666V60.75H22.0333V62.25ZM50.8495 29.75C50.2926 29.75 49.7405 29.772 49.1941 29.8153L49.3125 31.3106C49.8196 31.2705 50.3322 31.25 50.8495 31.25V29.75ZM49.1941 29.8153C45.7747 30.086 42.5829 31.1878 39.833 32.9214L40.633 34.1903C43.1821 32.5833 46.1408 31.5617 49.3125 31.3106L49.1941 29.8153ZM71.3147 48.4579C70.7456 38.3256 62.5538 30.3321 52.4441 29.7804L52.3623 31.2782C61.7261 31.7892 69.2918 39.1901 69.8171 48.5421L71.3147 48.4579ZM52.4441 29.7804C52.0741 29.7602 51.7017 29.75 51.327 29.75V31.25C51.6744 31.25 52.0196 31.2595 52.3623 31.2782L52.4441 29.7804ZM51.9008 31.0881L51.9378 31.1174L52.8686 29.9411L52.8316 29.9119L51.9008 31.0881ZM51.9378 31.1175L56.9563 35.0882L57.887 33.9118L52.8686 29.9411L51.9378 31.1175ZM48.8675 29.9118L48.788 29.9748L49.7187 31.1511L49.7982 31.0882L48.8675 29.9118ZM48.788 29.9748L43.812 33.9118L44.7428 35.0882L49.7187 31.1511L48.788 29.9748ZM31.8832 68.5V67.5H30.3832V68.5H31.8832ZM51.6161 30.1585L51.6162 30.5002L53.1162 30.4998L53.1161 30.1582L51.6161 30.1585ZM49.1285 29.635L48.7957 29.9766L49.8701 31.0234L50.2029 30.6817L49.1285 29.635ZM55.5214 31.24C56.3107 31.1099 57.1837 30.8788 58.0639 30.6762C58.9654 30.4687 59.9366 30.2745 61.0221 30.185C63.1775 30.0074 65.8363 30.2385 69.2621 31.6906L69.8475 30.3095C66.1957 28.7616 63.2934 28.4927 60.8989 28.6901C59.7094 28.7881 58.6584 29.0001 57.7273 29.2145C56.7749 29.4337 56.0049 29.6401 55.2775 29.76L55.5214 31.24ZM55.5214 31.24C56.8877 31.0148 59.2177 31.2132 61.5765 31.9301C63.9368 32.6474 66.1693 33.8369 67.4486 35.4636L68.6277 34.5364C67.0759 32.5631 64.5057 31.2526 62.0127 30.4949C59.5183 29.7368 56.9445 29.4852 55.2775 29.76L55.5214 31.24ZM68.0382 55C67.2892 54.9607 67.2892 54.9606 67.2892 54.9604C67.2892 54.9604 67.2892 54.9603 67.2892 54.9602C67.2892 54.9601 67.2892 54.9601 67.2892 54.9601C67.2892 54.9601 67.2892 54.9603 67.2892 54.9608C67.2891 54.9617 67.289 54.9636 67.2889 54.9663C67.2885 54.9717 67.288 54.9806 67.2872 54.9928C67.2855 55.0172 67.2828 55.0549 67.2786 55.1043C67.2703 55.2033 67.2564 55.3491 67.2341 55.5303C67.1893 55.8938 67.1118 56.3944 66.9809 56.9426C66.7108 58.0748 66.2468 59.2636 65.5062 59.9499L66.5257 61.0501C67.6075 60.0477 68.1546 58.4865 68.44 57.2908C68.5869 56.6751 68.6731 56.1174 68.7228 55.7135C68.7478 55.511 68.7636 55.3459 68.7734 55.2298C68.7783 55.1717 68.7816 55.1259 68.7838 55.0936C68.7849 55.0775 68.7856 55.0648 68.7862 55.0557C68.7865 55.0511 68.7867 55.0475 68.7868 55.0447C68.7869 55.0434 68.787 55.0422 68.787 55.0413C68.787 55.0408 68.7871 55.0404 68.7871 55.0401C68.7871 55.0399 68.7871 55.0397 68.7871 55.0396C68.7871 55.0395 68.7871 55.0393 68.0382 55ZM65.5062 59.9499C64.712 60.6858 63.2566 61.1568 61.8636 61.4322C61.1904 61.5653 60.5727 61.6453 60.123 61.692C59.8987 61.7153 59.7174 61.7301 59.5933 61.7391C59.5313 61.7436 59.4838 61.7466 59.4524 61.7484C59.4367 61.7493 59.425 61.75 59.4176 61.7504C59.4139 61.7506 59.4113 61.7507 59.4098 61.7508C59.4091 61.7508 59.4086 61.7508 59.4084 61.7508C59.4083 61.7508 59.4082 61.7508 59.4083 61.7508C59.4083 61.7508 59.4084 61.7508 59.4084 61.7508C59.4085 61.7508 59.4086 61.7508 59.4438 62.5C59.4791 63.2492 59.4792 63.2492 59.4794 63.2492C59.4795 63.2492 59.4797 63.2491 59.4798 63.2491C59.4802 63.2491 59.4805 63.2491 59.481 63.2491C59.4819 63.249 59.4831 63.249 59.4846 63.2489C59.4876 63.2488 59.4917 63.2485 59.4968 63.2483C59.5072 63.2477 59.5219 63.2469 59.5407 63.2458C59.5784 63.2436 59.6325 63.2402 59.7015 63.2352C59.8392 63.2252 60.0362 63.209 60.2778 63.184C60.7601 63.1339 61.425 63.048 62.1546 62.9037C63.5671 62.6244 65.3977 62.0954 66.5257 61.0501L65.5062 59.9499ZM49.594 43.5V49.5168H51.094V43.5H49.594ZM49.594 49.5168V54.5H51.094V49.5168H49.594ZM50.344 44.25C51.4118 44.25 52.2776 44.2186 53.1492 44.2266C53.9912 44.2343 54.6766 44.2814 55.2194 44.4156C55.7527 44.5475 56.0835 44.7475 56.2933 45.0162C56.5046 45.287 56.6716 45.7285 56.6716 46.5H58.1716C58.1716 45.5216 57.9595 44.7132 57.4757 44.0933C56.9903 43.4714 56.3101 43.1401 55.5795 42.9595C54.8584 42.7812 54.0272 42.7345 53.163 42.7266C52.3283 42.719 51.2984 42.75 50.344 42.75L50.344 44.25ZM56.6716 46.5C56.6716 47.1677 56.5461 47.5716 56.3713 47.8324C56.2033 48.0832 55.9322 48.288 55.4587 48.4435C54.9712 48.6035 54.3165 48.6953 53.4479 48.7394C52.5845 48.7832 51.5616 48.7781 50.351 48.7668L50.337 50.2668C51.5394 50.278 52.6078 50.284 53.5239 50.2375C54.4349 50.1913 55.2479 50.0915 55.9266 49.8686C56.6192 49.6412 57.2126 49.2718 57.6176 48.6672C58.0158 48.0728 58.1716 47.3401 58.1716 46.5H56.6716ZM50.351 48.7668C49.9627 48.7632 49.4567 48.759 49.0481 48.7557C48.8437 48.7541 48.6636 48.7526 48.5346 48.7516C48.47 48.7511 48.4183 48.7507 48.3827 48.7504C48.3649 48.7503 48.3511 48.7502 48.3418 48.7501C48.3371 48.7501 48.3335 48.7501 48.3312 48.75C48.33 48.75 48.3291 48.75 48.3285 48.75C48.3282 48.75 48.3279 48.75 48.3278 48.75C48.3277 48.75 48.3276 48.75 48.3276 48.75C48.3276 48.75 48.3276 48.75 48.3276 48.75C48.3276 48.75 48.3275 48.75 48.3218 49.5C48.316 50.25 48.316 50.25 48.316 50.25C48.316 50.25 48.3161 50.25 48.3161 50.25C48.3161 50.25 48.3162 50.25 48.3162 50.25C48.3164 50.25 48.3166 50.25 48.3169 50.25C48.3175 50.25 48.3184 50.25 48.3196 50.25C48.322 50.25 48.3255 50.2501 48.3302 50.2501C48.3395 50.2502 48.3533 50.2503 48.371 50.2504C48.4066 50.2507 48.4583 50.2511 48.5228 50.2516C48.6517 50.2526 48.8317 50.254 49.036 50.2557C49.4445 50.259 49.9497 50.2632 50.337 50.2668L50.351 48.7668ZM52.3662 51.75H48.3218V53.25H52.3662V51.75ZM34.9164 52.9013V38.5H33.4164V52.9013H34.9164ZM31.8832 61.5V55.5H30.3832V61.5H31.8832ZM51.327 31.25H52.3662V29.75H51.327V31.25ZM52.3662 31.25H54.3326V29.75H52.3662V31.25ZM47.3665 31.25H49.3329V29.75H47.3665V31.25ZM49.3329 31.25H50.8495V29.75H49.3329V31.25Z" fill="#B20237"/>
</g>
<defs>
<clipPath id="clip0_1303_745">
<rect width="90" height="90" fill="white" transform="translate(0 0.5)"/>
</clipPath>
</defs>
</svg>
