<svg width="38" height="38" viewBox="0 0 38 38" fill="none" xmlns="http://www.w3.org/2000/svg">
<rect width="38" height="38" rx="19" fill="#F3F6FF"/>
<path d="M20.2834 22.7509C20.2834 24.1065 20.2803 25.4587 20.2865 26.8143C20.2865 26.9627 20.2491 27.0032 20.1119 26.9998C19.0452 26.9931 17.9817 26.9931 16.915 26.9998C16.7684 26.9998 16.7216 26.9627 16.7216 26.7975C16.7279 24.1099 16.7248 21.4256 16.7248 18.738C16.7248 18.4682 16.7528 18.502 16.4971 18.4986C16.0448 18.4986 15.5926 18.4952 15.1404 18.502C15.0312 18.502 15 18.4649 15 18.3468C15.0031 17.4937 15.0031 16.6372 15 15.784C15 15.666 15.0312 15.6289 15.1404 15.6323C15.6144 15.639 16.0854 15.6289 16.5595 15.639C16.6873 15.6424 16.7279 15.6053 16.7279 15.4603C16.7216 14.742 16.7279 14.0204 16.7248 13.3021C16.7216 12.7052 16.8058 12.1286 17.0834 11.6025C17.3828 11.0293 17.832 10.6347 18.3871 10.3784C18.855 10.1626 19.3478 10.0614 19.853 10.0311C20.8542 9.97039 21.8585 10.021 22.8596 10.0007C22.9719 9.99737 23 10.0412 23 10.1559C22.9969 11.0427 22.9969 11.933 23 12.8199C23 12.9548 22.9532 12.975 22.8441 12.975C22.2671 12.9716 21.6901 12.9716 21.1131 12.9716C20.6327 12.9716 20.2865 13.3459 20.2865 13.8585C20.2865 14.3879 20.2928 14.914 20.2834 15.4434C20.2803 15.5952 20.3271 15.6323 20.4612 15.6323C21.2503 15.6255 22.0425 15.6323 22.8316 15.6255C22.9626 15.6255 23.0062 15.666 22.9906 15.8076C22.9439 16.2426 22.9033 16.6776 22.8596 17.1126C22.8191 17.5308 22.7505 17.9456 22.6881 18.3603C22.6694 18.4784 22.6351 18.5053 22.5353 18.5053C21.8585 18.502 21.1848 18.502 20.508 18.5053C20.2429 18.5053 20.2803 18.4682 20.2803 18.7582C20.2834 20.0869 20.2834 21.4189 20.2834 22.7509Z" fill="#3B5998"/>
</svg>
