<svg width="90" height="90" viewBox="0 0 90 90" fill="none" xmlns="http://www.w3.org/2000/svg">
<rect x="5" y="5" width="80" height="80" rx="7" fill="#B20237"/>
<rect x="1" y="1" width="88" height="88" rx="10" stroke="#B20237" stroke-width="2"/>
<path d="M74 40.3521C74 44.2739 61.464 47.4531 46 47.4531C30.536 47.4531 18 44.2739 18 40.3521C18 38.1213 22.0563 36.1307 28.4005 34.8289L30.8146 25.7765C31.6762 22.5457 35.6646 21.1322 38.7643 22.5671C41.0833 23.6407 43.7118 24.549 46 24.5722C48.4866 24.5974 51.367 23.6425 53.8813 22.5201C57.0306 21.1142 61.028 22.6587 61.7797 25.9474L63.8204 34.8747C70.0377 36.1771 74 38.1473 74 40.3521Z" fill="white"/>
<path fill-rule="evenodd" clip-rule="evenodd" d="M64.9549 51.0038C59.2737 51.7929 53.5935 52.1871 46.2882 52.1871C38.983 52.1871 33.3028 51.7929 27.6216 51.0038C25.1868 50.6657 23.8736 53.0914 24.781 55.7377C28.0274 65.2055 38.5781 66.9429 41.8245 65.6001C42.7401 65.2214 43.4157 64.5198 44.0374 63.8741C44.7625 63.1211 45.4144 62.4441 46.2882 62.4441C47.1621 62.4441 47.814 63.1211 48.5391 63.8741C49.1608 64.5198 49.8364 65.2214 50.752 65.6001C53.9984 66.9429 64.5491 65.2055 67.7955 55.7377C68.7028 53.0914 67.3897 50.6657 64.9549 51.0038ZM31.3909 56.921C31.6688 55.5698 33.8257 55.3431 35.4489 55.3431C37.4779 55.3431 41.9428 56.132 41.9428 57.71C41.9428 59.6709 39.1533 61.1682 36.6666 60.866C33.4203 60.4715 31.194 57.8787 31.3909 56.921ZM56.9577 55.3431C58.5809 55.3431 60.7378 55.5698 61.0157 56.921C61.2126 57.8787 58.9863 60.4715 55.74 60.866C53.2533 61.1682 50.4638 59.6709 50.4638 57.71C50.4638 56.132 54.9287 55.3431 56.9577 55.3431Z" fill="white"/>
<path d="M31.3909 56.921L32.1255 57.0721L31.3909 56.921ZM36.6666 60.866L36.7571 60.1215L36.6666 60.866ZM61.0157 56.921L60.281 57.0721L61.0157 56.921ZM55.74 60.866L55.6495 60.1215L55.74 60.866ZM64.244 40.4915L64.3656 41.2316L64.244 40.4915ZM27.7845 40.4962L27.9059 39.7561L27.7845 40.4962ZM38.7643 22.5671L39.0794 21.8865V21.8865L38.7643 22.5671ZM46 24.5722L46.0076 23.8222L46 24.5722ZM53.8813 22.5201L54.1871 23.2049L53.8813 22.5201ZM27.1471 39.5286L27.8718 39.7219L27.1471 39.5286ZM64.8892 39.5503L64.158 39.7174V39.7174L64.8892 39.5503ZM61.7797 25.9474L61.0486 26.1145L61.7797 25.9474ZM30.8146 25.7765L30.0899 25.5833L30.8146 25.7765ZM28.4005 34.8289L29.1252 35.0222L28.4005 34.8289ZM63.8204 34.8747L63.0893 35.0418L63.8204 34.8747ZM64.9549 51.0038L64.8517 50.261L64.9549 51.0038ZM67.7955 55.7377L67.086 55.4944L67.7955 55.7377ZM50.752 65.6001L51.0387 64.907L50.752 65.6001ZM27.6216 51.0038L27.5184 51.7467L27.6216 51.0038ZM24.781 55.7377L25.4904 55.4944L24.781 55.7377ZM41.8245 65.6001L41.5378 64.907H41.5378L41.8245 65.6001ZM48.5391 63.8741L47.9988 64.3943V64.3943L48.5391 63.8741ZM44.0374 63.8741L44.5777 64.3943V64.3943L44.0374 63.8741ZM32.1255 57.0721C32.1768 56.8231 32.4191 56.5504 33.1246 56.3456C33.7973 56.1502 34.6565 56.0931 35.4489 56.0931V54.5931C34.618 54.5931 33.5873 54.6493 32.7062 54.9051C31.858 55.1514 30.8829 55.6678 30.6563 56.77L32.1255 57.0721ZM35.4489 56.0931C36.3942 56.0931 37.9477 56.2807 39.2492 56.6555C39.9029 56.8438 40.4423 57.0652 40.8016 57.3013C41.1859 57.5538 41.1928 57.7027 41.1928 57.71H42.6928C42.6928 56.9283 42.1416 56.3869 41.6253 56.0477C41.0841 55.6921 40.3804 55.4203 39.6643 55.2141C38.226 54.7999 36.5326 54.5931 35.4489 54.5931V56.0931ZM41.1928 57.71C41.1928 58.3106 40.7551 58.972 39.8624 59.487C38.9893 59.9907 37.8329 60.2522 36.7571 60.1215L36.5762 61.6105C37.987 61.782 39.4687 61.4459 40.612 60.7863C41.7358 60.138 42.6928 59.0703 42.6928 57.71H41.1928ZM36.7571 60.1215C35.3062 59.9452 34.074 59.2746 33.2303 58.5393C32.8084 58.1716 32.5019 57.8035 32.3177 57.4984C32.1085 57.1517 32.1359 57.0217 32.1255 57.0721L30.6563 56.77C30.5475 57.2992 30.7794 57.8525 31.0336 58.2736C31.3129 58.7363 31.729 59.2206 32.2448 59.6701C33.2766 60.5693 34.7807 61.3924 36.5762 61.6105L36.7571 60.1215ZM61.7503 56.77C61.5237 55.6678 60.5486 55.1514 59.7003 54.9051C58.8193 54.6493 57.7885 54.5931 56.9577 54.5931V56.0931C57.75 56.0931 58.6093 56.1502 59.282 56.3456C59.9875 56.5504 60.2298 56.8231 60.281 57.0721L61.7503 56.77ZM56.9577 54.5931C55.874 54.5931 54.1806 54.7999 52.7423 55.2141C52.0262 55.4203 51.3225 55.6921 50.7813 56.0477C50.265 56.3869 49.7138 56.9283 49.7138 57.71H51.2138C51.2138 57.7027 51.2206 57.5538 51.605 57.3013C51.9643 57.0652 52.5037 56.8438 53.1574 56.6555C54.4588 56.2807 56.0124 56.0931 56.9577 56.0931V54.5931ZM49.7138 57.71C49.7138 59.0703 50.6708 60.138 51.7946 60.7863C52.9379 61.4459 54.4195 61.782 55.8304 61.6105L55.6495 60.1215C54.5737 60.2522 53.4172 59.9907 52.5442 59.487C51.6515 58.972 51.2138 58.3106 51.2138 57.71H49.7138ZM55.8304 61.6105C57.6259 61.3924 59.13 60.5693 60.1618 59.6701C60.6776 59.2206 61.0937 58.7363 61.373 58.2736C61.6272 57.8525 61.8591 57.2992 61.7503 56.77L60.281 57.0721C60.2707 57.0217 60.2981 57.1517 60.0888 57.4984C59.9047 57.8035 59.5982 58.1716 59.1763 58.5393C58.3326 59.2746 57.1004 59.9452 55.6495 60.1215L55.8304 61.6105ZM73.25 40.3521C73.25 40.9089 72.7886 41.6487 71.4139 42.4729C70.0865 43.2688 68.1158 44.0119 65.6146 44.6463C60.6236 45.912 53.6885 46.7031 46 46.7031V48.2031C53.7755 48.2031 60.8403 47.4045 65.9834 46.1002C68.5492 45.4495 70.6789 44.6625 72.1853 43.7594C73.6444 42.8845 74.75 41.7561 74.75 40.3521H73.25ZM46 46.7031C38.3115 46.7031 31.3764 45.912 26.3854 44.6463C23.8842 44.0119 21.9135 43.2688 20.5861 42.4729C19.2114 41.6487 18.75 40.9089 18.75 40.3521H17.25C17.25 41.7561 18.3556 42.8845 19.8147 43.7594C21.3211 44.6625 23.4508 45.4495 26.0166 46.1002C31.1597 47.4045 38.2245 48.2031 46 48.2031V46.7031ZM64.1225 39.7514C61.3811 40.2017 52.4827 41.5746 46 41.5746V43.0746C52.6208 43.0746 61.6317 41.6806 64.3656 41.2316L64.1225 39.7514ZM46 41.5746C39.5398 41.5746 30.6804 40.2112 27.9059 39.7561L27.6631 41.2363C30.4303 41.6902 39.4019 43.0746 46 43.0746V41.5746ZM38.4492 23.2478C40.7948 24.3336 43.5413 25.2973 45.9924 25.3222L46.0076 23.8222C43.8822 23.8007 41.3717 22.9477 39.0794 21.8865L38.4492 23.2478ZM45.9924 25.3222C48.6453 25.349 51.6471 24.3389 54.1871 23.2049L53.5756 21.8352C51.0869 22.9462 48.3278 23.8457 46.0076 23.8222L45.9924 25.3222ZM26.4225 39.3354C26.1872 40.2176 26.7699 41.0898 27.6631 41.2363L27.9059 39.7561C27.8934 39.754 27.8867 39.7504 27.883 39.7481C27.8789 39.7454 27.8759 39.7422 27.8739 39.7391C27.8719 39.736 27.8711 39.7334 27.8708 39.7318C27.8706 39.7308 27.8702 39.728 27.8718 39.7219L26.4225 39.3354ZM64.158 39.7174C64.1593 39.7229 64.1588 39.7254 64.1586 39.7264C64.1583 39.7281 64.1574 39.7307 64.1552 39.734C64.153 39.7372 64.1498 39.7406 64.1453 39.7434C64.1414 39.7459 64.1345 39.7494 64.1225 39.7514L64.3656 41.2316C65.2361 41.0886 65.8191 40.2529 65.6203 39.3831L64.158 39.7174ZM62.5109 25.7803C61.6309 21.9306 57.0571 20.281 53.5756 21.8352L54.1871 23.2049C57.004 21.9474 60.4251 23.3868 61.0486 26.1145L62.5109 25.7803ZM31.5393 25.9698C32.2541 23.2894 35.6724 21.9622 38.4492 23.2478L39.0794 21.8865C35.6568 20.3021 31.0984 21.802 30.0899 25.5833L31.5393 25.9698ZM27.6758 34.6357L26.4225 39.3354L27.8718 39.7219L29.1252 35.0222L27.6758 34.6357ZM65.6203 39.3831L64.5515 34.7076L63.0893 35.0418L64.158 39.7174L65.6203 39.3831ZM61.0486 26.1145L63.0893 35.0418L64.5515 34.7076L62.5109 25.7803L61.0486 26.1145ZM63.6666 35.6088C66.7438 36.2534 69.2123 37.0539 70.8922 37.9386C71.7328 38.3813 72.3402 38.8266 72.729 39.254C73.1138 39.677 73.25 40.0416 73.25 40.3521H74.75C74.75 39.5602 74.3909 38.8517 73.8385 38.2446C73.29 37.6417 72.5183 37.0997 71.5912 36.6114C69.7356 35.6342 67.1143 34.7984 63.9742 34.1406L63.6666 35.6088ZM29.1252 35.0222L31.5393 25.9698L30.0899 25.5833L27.6758 34.6357L29.1252 35.0222ZM18.75 40.3521C18.75 40.0381 18.8894 39.6683 19.2847 39.2391C19.6837 38.8057 20.3065 38.3549 21.1671 37.9076C22.8865 37.0139 25.4106 36.2081 28.5512 35.5636L28.2497 34.0942C25.0463 34.7516 22.37 35.5919 20.4753 36.5766C19.5287 37.0686 18.741 37.615 18.1812 38.223C17.6176 38.8351 17.25 39.5507 17.25 40.3521H18.75ZM46.2882 52.9371C53.6236 52.9371 59.3386 52.5411 65.0581 51.7467L64.8517 50.261C59.2089 51.0447 53.5634 51.4371 46.2882 51.4371V52.9371ZM65.0581 51.7467C65.9711 51.6199 66.6121 51.9943 66.9798 52.628C67.3682 53.2974 67.4846 54.332 67.086 55.4944L68.5049 55.9809C69.0137 54.4971 68.9272 52.9956 68.2772 51.8752C67.6064 50.719 66.3735 50.0496 64.8517 50.261L65.0581 51.7467ZM67.086 55.4944C65.5463 59.985 62.2792 62.6459 58.9831 64.0315C57.3327 64.7252 55.6857 65.0938 54.2672 65.2095C52.8296 65.3267 51.6959 65.1789 51.0387 64.907L50.4653 66.2931C51.4313 66.6927 52.8338 66.8313 54.389 66.7045C55.9632 66.5762 57.7655 66.1704 59.5644 65.4143C63.1668 63.8999 66.7983 60.9582 68.5049 55.9809L67.086 55.4944ZM46.2882 51.4371C39.013 51.4371 33.3676 51.0447 27.7248 50.261L27.5184 51.7467C33.2379 52.5411 38.9529 52.9371 46.2882 52.9371V51.4371ZM27.7248 50.261C26.2029 50.0496 24.9701 50.719 24.2993 51.8752C23.6492 52.9956 23.5628 54.4971 24.0715 55.9809L25.4904 55.4944C25.0919 54.332 25.2083 53.2974 25.5967 52.628C25.9643 51.9943 26.6054 51.6199 27.5184 51.7467L27.7248 50.261ZM24.0715 55.9809C25.7782 60.9582 29.4097 63.8999 33.0121 65.4143C34.811 66.1704 36.6132 66.5762 38.1875 66.7045C39.7426 66.8313 41.1451 66.6927 42.1111 66.2931L41.5378 64.907C40.8806 65.1789 39.7469 65.3267 38.3093 65.2095C36.8908 65.0938 35.2438 64.7252 33.5934 64.0315C30.2973 62.6459 27.0302 59.985 25.4904 55.4944L24.0715 55.9809ZM51.0387 64.907C50.2906 64.5976 49.7177 64.0168 49.0793 63.3539L47.9988 64.3943C48.6039 65.0227 49.3822 65.8451 50.4653 66.2931L51.0387 64.907ZM49.0793 63.3539C48.7287 62.9897 48.337 62.5797 47.91 62.2697C47.4685 61.9493 46.9352 61.6941 46.2882 61.6941V63.1941C46.5151 63.1941 46.7447 63.2774 47.0289 63.4837C47.3276 63.7005 47.6244 64.0054 47.9988 64.3943L49.0793 63.3539ZM46.2882 61.6941C45.6413 61.6941 45.1079 61.9493 44.6665 62.2697C44.2395 62.5797 43.8478 62.9897 43.4972 63.3539L44.5777 64.3943C44.9521 64.0054 45.2489 63.7005 45.5476 63.4837C45.8318 63.2774 46.0613 63.1941 46.2882 63.1941V61.6941ZM43.4972 63.3539C42.8588 64.0168 42.2859 64.5976 41.5378 64.907L42.1111 66.2931C43.1943 65.8451 43.9726 65.0227 44.5777 64.3943L43.4972 63.3539Z" fill="#B20237"/>
</svg>
