<svg width="38" height="38" viewBox="0 0 38 38" fill="none" xmlns="http://www.w3.org/2000/svg">
<rect width="38" height="38" rx="19" fill="#F3F6FF"/>
<path fill-rule="evenodd" clip-rule="evenodd" d="M29 12.1308C28.2652 12.4923 27.4739 12.7366 26.6439 12.8458C27.4914 12.2842 28.1419 11.3935 28.4483 10.3328C27.6547 10.8529 26.7778 11.2312 25.841 11.434C25.0944 10.5513 24.0273 10 22.8463 10C20.5818 10 18.7447 12.0346 18.7447 14.544C18.7447 14.9002 18.7798 15.246 18.8503 15.5789C15.4404 15.3889 12.4176 13.5817 10.3925 10.8294C10.0392 11.5029 9.83717 12.2842 9.83717 13.1163C9.83717 14.6921 10.5615 16.0831 11.6626 16.8984C10.9912 16.8763 10.3572 16.6695 9.80311 16.3315V16.3874C9.80311 18.5898 11.2176 20.4268 13.0959 20.8429C12.752 20.9496 12.3892 21.0029 12.0146 21.0029C11.7506 21.0029 11.4923 20.9756 11.2422 20.9222C11.7645 22.7269 13.2788 24.0413 15.0749 24.0764C13.6709 25.2959 11.9007 26.0226 9.97905 26.0226C9.64796 26.0226 9.32046 26.0018 9 25.9601C10.8161 27.2472 12.9737 28 15.2897 28C22.8379 28 26.9641 21.0768 26.9641 15.0716C26.9641 14.874 26.9605 14.6764 26.9535 14.4827C27.7556 13.8418 28.4517 13.0422 29 12.1308Z" fill="#1DA1F2"/>
</svg>
