<svg width="38" height="38" viewBox="0 0 38 38" fill="none" xmlns="http://www.w3.org/2000/svg">
<rect width="38" height="38" rx="19" fill="#F3F6FF"/>
<path d="M8.74284 12C9.51213 12 10.6844 12 11.3438 12C11.6735 12 11.9299 12.232 12.0398 12.5414C12.3695 13.547 13.1021 15.7514 13.9447 17.2597C15.0803 19.232 15.8129 19.9669 16.2892 19.8895C16.7654 19.7735 16.6189 18.4586 16.6189 17.4144C16.6189 16.3702 16.7287 14.5912 16.2525 13.779L15.5199 12.6575C15.3367 12.3867 15.5199 12.0387 15.8129 12.0387H19.989C20.392 12.0387 20.7217 12.3867 20.7217 12.8122V18.4199C20.7217 18.4199 20.9049 19.4254 21.9306 18.3812C22.9563 17.337 24.0553 15.4033 24.9711 13.4309L25.3374 12.5028C25.4473 12.232 25.7037 12.0387 25.9968 12.0387H28.7076C29.2205 12.0387 29.5868 12.5801 29.4036 13.0829L29.1106 13.895C29.1106 13.895 28.1215 15.9834 27.0958 17.453C26.0701 18.9613 25.8503 19.3094 25.9968 19.6961C26.1433 20.0829 28.7809 22.674 29.4403 23.9116C29.6234 24.2597 29.77 24.5691 29.9165 24.8398C30.1729 25.3425 29.8066 26 29.2571 26H26.18C25.9235 26 25.6671 25.8453 25.5572 25.6133L25.2641 25.1105C25.2641 25.1105 23.3959 22.7901 22.2603 22.0553C21.088 21.3591 21.1247 22.3646 21.1247 22.3646V24.4144C21.1247 25.2652 20.4653 25.9613 19.6594 25.9613H18.9267C18.9267 25.9613 14.8971 25.9613 11.6735 20.895C9.1458 16.9503 8.30325 14.3978 8.01019 12.9282C7.93693 12.4641 8.26662 12 8.74284 12Z" fill="#0077FF"/>
</svg>
